# xmcd CD database file
#
# Track frame offsets:
#	150
#	17120
#	44331
#	63577
#	80792
#	96160
#	118173
#	131204
#	152831
#	167124
#
# Disc length: 2557 seconds
#
# Revision: 1
# Processed by: cddbd v1.5.2PL0 Copyright (c) Steve Scherf et al.
# Submitted via: CDex 1.51
#
DISCID=8d09fb0a
DTITLE=Kenny Chesney - Life On A Rock
DYEAR=2013
DGENRE=Country
TTITLE0=Kenny Chesney - Pirate Flag
TTITLE1=Kenny Chesney - When I See This Bar
TTITLE2=Kenny Chesney feat. The Wailers with Elan - Spread The Love
TTITLE3=Kenny Chesney - Lindy
TTITLE4=Kenny Chesney with Willie Nelson - Coconut Tree
TTITLE5=Kenny Chesney - It's That Time Of Day
TTITLE6=Kenny Chesney - Life On A Rock
TTITLE7=Kenny Chesney - Marley
TTITLE8=Kenny Chesney - Must Be Something I Missed
TTITLE9=Kenny Chesney - Happy On The Hey Now (A Song For Kristi)
EXTD=YEAR: 2013
EXTT0=
EXTT1=
EXTT2=
EXTT3=
EXTT4=
EXTT5=
EXTT6=
EXTT7=
EXTT8=
EXTT9=
PLAYORDER=
